<svg xmlns="http://www.w3.org/2000/svg" viewBox="0 0 238.13 255.88"><defs><style>.a,.c,.e{fill:#fff;}.a,.b{stroke:#cccccb;}.a,.b,.c,.d,.e,.f{stroke-miterlimit:10;stroke-width:2px;}.b,.d,.f{fill:none;}.c,.d{stroke:#6fccdd;}.e,.f{stroke:#2e368f;}</style></defs><path class="a" d="M202.72,87.9c-15.18-2.07-29.81,13.36-32.69,34.46s7.09,39.9,22.27,42S222.12,151,225,129.86,217.9,90,202.72,87.9Zm10,11.73c1.49-.66,3,.7,3.05.76,1.6,1.5.85,4,.81,4.12a4.32,4.32,0,0,1-.8,1.43c-2.18,2.64-7.14,7.77-7.61,8.27-.26.14-.87.42-1.14.18s-.12-.66,0-.94c.47-1.71,3.95-11.12,4.42-12.37A2.63,2.63,0,0,1,212.73,99.63Zm-26.09-.8a5.82,5.82,0,0,1,1.59-2.72c.62-.63,2.32-2.15,7.63-3,3.63-.57,7.78-1.23,10.53.83a7.43,7.43,0,0,1,2.11,2.49A5.06,5.06,0,0,1,209,98a5.19,5.19,0,0,1-.22,2.42,67.33,67.33,0,0,0-3,7.22c-.4,1.19-1.1,2.26-1.56,3.42a3.3,3.3,0,0,1-.92,1.35,3.38,3.38,0,0,1-1.31.67,20.51,20.51,0,0,1-5.74.81,3.56,3.56,0,0,1-2.15-.41,3,3,0,0,1-1.05-1.25c-.43-.71-4.71-5.92-6.09-10.07A5.94,5.94,0,0,1,186.64,98.83ZM178.15,108a6.29,6.29,0,0,1,2.74-4.26,3,3,0,0,1,1.29-.4,3.14,3.14,0,0,1,2.09.89c1.27,1.05,3.75,5.13,6.45,11,.21.47.82,2,.26,2.51-.38.34-1.14.11-3-.75-2.6-1.21-3.38-1.8-7.66-4.54A4.56,4.56,0,0,1,178.1,110,3.83,3.83,0,0,1,178.15,108Zm.75,37.17a3.45,3.45,0,0,1-2.65-2.31,61,61,0,0,1-2.9-12.09,26.43,26.43,0,0,1-.14-7.63c.26-1.85,1.07-7.47,3.77-8.11.37-.08.89-.08,4.55,2,1.72,1,3.15,1.87,4.2,2.55a9.7,9.7,0,0,1,2.84,2.85c.9,1.41,1,2.29,1.65,9.61a5.26,5.26,0,0,1-.08,1.8,6,6,0,0,1-1.52,2.75c-1.34,1.49-3.59,4.12-6.56,7.48A3.63,3.63,0,0,1,178.9,145.15Zm7.2,10.18a3.25,3.25,0,0,1-2.57-.65,4.73,4.73,0,0,1-1.79-5,4.21,4.21,0,0,1,.5-1.13c1.6-2.67,3.78-4.56,6.58-6.95,2.38-2,2.94-2.5,3.3-2.28.54.32.13,1.91-.53,4.39a50.31,50.31,0,0,1-2.57,7.05C187.49,154.37,187,155.1,186.1,155.33Zm25.56-4a5.09,5.09,0,0,1-1.15,2.52c-1.94,2.5-5.26,3.93-7,4.59-5,1.95-7.51,2.93-9.85,1.67a6.62,6.62,0,0,1-2.81-3.31,17.59,17.59,0,0,1,1.28-4.84,34.53,34.53,0,0,0,1.29-3.92c.51-2,1.21-3.86,1.76-5.81a2.87,2.87,0,0,1,.68-1.25,3,3,0,0,1,1.09-.72,18.12,18.12,0,0,1,4.94-1.23,3.15,3.15,0,0,1,1.91.17,2.69,2.69,0,0,1,1,1c.44.58,4.65,4.75,6.24,8.25A5.22,5.22,0,0,1,211.66,151.29Zm5.38-5.06a3.31,3.31,0,0,1-3.69.18,34.13,34.13,0,0,1-5.45-8.25c-.64-1.5-.61-2.07-.37-2.27s1.37.23,1.81.5l7.37,4.76A3.51,3.51,0,0,1,217,146.23Zm3.58-11.8A4.23,4.23,0,0,1,219,137.1a3,3,0,0,1-2,.35l-5.92-3.69A4.22,4.22,0,0,1,209,132a4.41,4.41,0,0,1-.51-1.86c-.26-3.2-.38-7.14-.4-7.8a6.65,6.65,0,0,1,.33-3.15,6.42,6.42,0,0,1,1.42-2.23c1.44-1.54,3.56-4,6.33-7.16a2.7,2.7,0,0,1,2-1c.93.11,1.61,1.1,2.2,2.5C223.57,118.69,221.42,131.11,220.62,134.43Z"/><ellipse class="b" cx="199.25" cy="119.84" rx="2.89" ry="1.96" transform="translate(53.6 301.07) rotate(-82.24)"/><ellipse class="b" cx="194.8" cy="128.01" rx="2.89" ry="1.96" transform="translate(41.65 303.74) rotate(-82.24)"/><ellipse class="b" cx="199.92" cy="133.04" rx="2.89" ry="1.96" transform="translate(41.09 313.17) rotate(-82.24)"/><ellipse class="a" cx="204.11" cy="125.93" rx="2.89" ry="1.96" transform="translate(51.77 311.16) rotate(-82.24)"/><circle class="b" cx="193.86" cy="120.34" r="0.62"/><circle class="b" cx="205.14" cy="118.39" r="0.62"/><circle class="b" cx="195.15" cy="135.31" r="0.62"/><circle class="b" cx="205.09" cy="133.29" r="0.62"/><path class="a" d="M89.39,164.39l17.52-77a.4.4,0,0,1,.52-.29l67.68,23-17.74,67.13"/><path class="a" d="M89.39,164.39l17.43-76.64a.59.59,0,0,0-.65-.71L93.21,89,74.93,162.64"/><rect class="b" x="142.99" y="115.71" width="7.5" height="45.49" transform="translate(40.95 -33.33) rotate(15.04)"/><rect class="a" x="150.05" y="119.67" width="22.21" height="45.36" transform="translate(42.45 -36.94) rotate(15.04)"/><polygon class="a" points="109.37 181.29 69.55 173.98 72.81 162.38 112.48 168.25 109.37 181.29"/><polygon class="a" points="175.11 181.52 112.48 168.25 109.37 181.29 173 194.34 175.11 181.52"/><path class="a" d="M108.19,7.69c-21.54,0-39,24.28-39,54.23s17.46,54.22,39,54.22,39-24.27,39-54.22S129.73,7.69,108.19,7.69Zm16.16,14.45c2-1.21,4.3.4,4.4.48,2.52,1.78,1.94,5.4,1.91,5.58a6,6,0,0,1-.84,2.15c-2.54,4.09-8.47,12.18-9,13-.34.24-1.12.75-1.54.47s-.29-.9-.24-1.3c.33-2.48,3.4-16.24,3.81-18.08A3.69,3.69,0,0,1,124.35,22.14ZM87.86,26a8.21,8.21,0,0,1,1.7-4.1c.74-1,2.82-3.44,10.06-5.62,4.94-1.49,10.6-3.19,14.83-.85a10.44,10.44,0,0,1,3.41,3.07,7.17,7.17,0,0,1,1,2.11A7.41,7.41,0,0,1,119,24a93.88,93.88,0,0,0-2.87,10.64c-.33,1.73-1.1,3.35-1.52,5.06a4.72,4.72,0,0,1-1,2,4.88,4.88,0,0,1-1.71,1.19,29.46,29.46,0,0,1-7.84,2.22A5.12,5.12,0,0,1,101,45a4.27,4.27,0,0,1-1.7-1.54c-.74-.91-7.68-7.36-10.4-12.87A8.33,8.33,0,0,1,87.86,26ZM77.76,40.34c.06-1,.42-4.52,3-6.46a4,4,0,0,1,1.71-.8,4.5,4.5,0,0,1,3.09.83c2,1.23,6.19,6.45,11.06,14,.38.62,1.52,2.62.84,3.44-.46.56-1.57.37-4.29-.47-3.85-1.19-5-1.87-11.53-4.88-1.42-.66-2.86-1.32-3.57-2.85A5.52,5.52,0,0,1,77.76,40.34ZM85.88,92a4.87,4.87,0,0,1-4.14-2.72A86.84,86.84,0,0,1,75.41,73a36.83,36.83,0,0,1-1.65-10.61c0-2.62.07-10.6,3.72-12,.49-.19,1.22-.28,6.72,1.94,2.58,1.05,4.74,2,6.33,2.74A13.73,13.73,0,0,1,95,58.48c1.51,1.79,1.76,3,4.13,13.06a7.87,7.87,0,0,1,.22,2.53,8.36,8.36,0,0,1-1.6,4.12c-1.58,2.33-4.22,6.42-7.71,11.67A5.15,5.15,0,0,1,85.88,92Zm17.39-4.4A68.73,68.73,0,0,1,101,97.89c-1.45,5.3-2,6.41-3.21,6.9a4.6,4.6,0,0,1-3.7-.42,6.65,6.65,0,0,1-3.43-6.6,6.12,6.12,0,0,1,.47-1.66c1.73-4,4.4-7.07,7.85-10.94,2.93-3.28,3.63-4,4.16-3.81C104,81.71,103.72,84,103.27,87.58ZM131.56,98c-2.24,3.84-6.6,6.47-8.85,7.72-6.6,3.67-9.89,5.5-13.4,4.19a9.3,9.3,0,0,1-4.54-4.08,23,23,0,0,1,.12-2.91,25.18,25.18,0,0,1,.74-4.08,47.18,47.18,0,0,0,1.05-5.7c.34-2.82,1-5.61,1.35-8.42a4,4,0,0,1,.71-1.88,4.09,4.09,0,0,1,1.38-1.2A25.21,25.21,0,0,1,116.77,79a4.4,4.4,0,0,1,2.7-.14,3.78,3.78,0,0,1,1.63,1.19c.73.73,7.38,5.73,10.26,10.3a7.35,7.35,0,0,1,1.31,3.93A7.14,7.14,0,0,1,131.56,98Zm7.66-11.8a4.69,4.69,0,0,1-5.12,1c-5.56-5.1-8-8.55-9.15-10.46s-1.25-2.77-1-3.1c.47-.53,2,.07,2.61.36l11.18,5.23C140.42,81.08,140.75,84.49,139.22,86.24Zm1.05-13.11a4.09,4.09,0,0,1-2.66.86l-9-4a5.86,5.86,0,0,1-3.37-2.1,6.1,6.1,0,0,1-1.07-2.48c-1-4.42-1.88-9.88-2-10.79a9.44,9.44,0,0,1-.15-4.46,9,9,0,0,1,1.57-3.37c1.71-2.43,4.2-6.22,7.45-11.18a3.78,3.78,0,0,1,2.66-1.81c1.32,0,2.46,1.22,3.55,3.06,5.83,9.78,5.19,27.48,4.7,32.27A5.85,5.85,0,0,1,140.27,73.13Z"/><ellipse class="b" cx="109.41" cy="52.85" rx="2.76" ry="4.06"/><ellipse class="b" cx="104.77" cy="65.08" rx="2.76" ry="4.06"/><ellipse class="b" cx="112.86" cy="71.12" rx="2.76" ry="4.06"/><ellipse class="b" cx="117.34" cy="60.41" rx="2.76" ry="4.06"/><circle class="b" cx="102.01" cy="54.58" r="0.86"/><circle class="b" cx="117.34" cy="49.72" r="0.86"/><circle class="b" cx="106.65" cy="75.18" r="0.86"/><circle class="b" cx="120.11" cy="70.48" r="0.86"/><polygon class="a" points="54.81 201.13 98.9 213.96 106.84 180.87 63.62 171.84 54.81 201.13"/><polygon class="a" points="98.9 213.96 175.11 222.95 177.98 194.34 106.84 180.87 98.9 213.96"/><polygon class="a" points="145.89 123.21 138.25 119.67 134.39 133.79 142.41 136.35 145.89 123.21"/><path class="a" d="M114.06,126.67,101.44,124l-1.7,9.63,13,2.74a9.2,9.2,0,0,0,1.72.06,4.91,4.91,0,0,0,4.14-5.56C118.29,128.51,116.12,127.06,114.06,126.67Z"/><circle class="a" cx="99.9" cy="128.64" r="4.9"/><path class="a" d="M106.84,138.11l2.71,7.83,13.78,2.53a.36.36,0,0,0,.38-.52l-3.67-6.9Z"/><path class="a" d="M106.19,167.32l14.87,2.75,3-21.32a.15.15,0,0,0-.12-.17l-14.37-2.64Z"/><polygon class="a" points="99.42 136.46 106.84 138.11 109.55 145.94 106.19 167.32 93.22 165.4 99.42 136.46"/><path class="a" d="M136.19,113.27a2,2,0,0,0-.63-.12c-1.6,0-2.89,2-2.89,4.45s1.29,4.45,2.89,4.45l2.17.39a1.33,1.33,0,0,0,1.56-1.31v-7.31Z"/><ellipse class="a" cx="139.29" cy="118.27" rx="2.88" ry="4.45"/><path class="a" d="M163.74,149.9a1.53,1.53,0,0,0-.59-.13c-1.53,0-2.77,2.35-2.77,5.24s1.24,5.25,2.77,5.25l2,.44a1.32,1.32,0,0,0,1.59-1.28v-8.87Z"/><ellipse class="a" cx="166.78" cy="155.79" rx="2.76" ry="5.25"/><path class="c" d="M180,99.53c-15.18-2.07-29.81,13.36-32.69,34.46s7.09,39.9,22.27,42,29.82-13.37,32.7-34.47S195.16,101.6,180,99.53Zm10,11.73c1.49-.66,3,.7,3,.76,1.6,1.5.85,4,.81,4.12a4.32,4.32,0,0,1-.8,1.43c-2.18,2.64-7.14,7.77-7.61,8.27-.26.14-.87.42-1.14.18s-.12-.66,0-.94c.47-1.71,4-11.12,4.42-12.37A2.63,2.63,0,0,1,190,111.26Zm-26.09-.8a5.82,5.82,0,0,1,1.59-2.72c.62-.63,2.32-2.15,7.63-3,3.63-.57,7.78-1.23,10.53.83a7.43,7.43,0,0,1,2.11,2.49,5.06,5.06,0,0,1,.5,1.58,5.19,5.19,0,0,1-.22,2.42,67.33,67.33,0,0,0-3,7.22c-.4,1.19-1.1,2.26-1.56,3.42a3.3,3.3,0,0,1-.92,1.35,3.38,3.38,0,0,1-1.31.67,20.51,20.51,0,0,1-5.74.81,3.56,3.56,0,0,1-2.15-.41,3,3,0,0,1-1-1.25c-.43-.71-4.71-5.92-6.09-10.07A5.94,5.94,0,0,1,163.9,110.46Zm-8.49,9.15a6.29,6.29,0,0,1,2.74-4.26,3,3,0,0,1,1.29-.4,3.14,3.14,0,0,1,2.09.89c1.27,1,3.75,5.13,6.45,11,.21.47.82,2,.26,2.51-.38.34-1.14.11-3-.75-2.6-1.21-3.38-1.8-7.66-4.54a4.56,4.56,0,0,1-2.24-2.36A3.83,3.83,0,0,1,155.41,119.61Zm.75,37.17a3.45,3.45,0,0,1-2.65-2.31,61,61,0,0,1-2.9-12.09,26.43,26.43,0,0,1-.14-7.63c.26-1.85,1.07-7.47,3.77-8.11.37-.08.89-.08,4.55,2,1.72,1,3.15,1.87,4.2,2.55a9.7,9.7,0,0,1,2.84,2.85c.9,1.41.95,2.29,1.65,9.61a5.26,5.26,0,0,1-.08,1.8,6,6,0,0,1-1.52,2.75c-1.34,1.49-3.59,4.12-6.56,7.48A3.63,3.63,0,0,1,156.16,156.78Zm7.2,10.18a3.25,3.25,0,0,1-2.57-.65,4.73,4.73,0,0,1-1.79-5,4.21,4.21,0,0,1,.5-1.13c1.6-2.67,3.78-4.56,6.58-6.95,2.38-2,2.94-2.5,3.3-2.28.54.32.13,1.91-.53,4.39a50.31,50.31,0,0,1-2.57,7C164.75,166,164.23,166.73,163.36,167Zm25.56-4a5.09,5.09,0,0,1-1.15,2.52c-1.94,2.5-5.26,3.93-7,4.59-5,1.95-7.51,2.93-9.85,1.67a6.62,6.62,0,0,1-2.81-3.31,17.59,17.59,0,0,1,1.28-4.84,34.53,34.53,0,0,0,1.29-3.92c.51-2,1.21-3.86,1.76-5.81a2.87,2.87,0,0,1,.68-1.25,3,3,0,0,1,1.09-.72,18.12,18.12,0,0,1,4.94-1.23,3.15,3.15,0,0,1,1.91.17,2.69,2.69,0,0,1,1,1c.44.58,4.65,4.75,6.24,8.25A5.22,5.22,0,0,1,188.92,162.92Zm5.38-5.06a3.31,3.31,0,0,1-3.69.18,34.13,34.13,0,0,1-5.45-8.25c-.64-1.5-.61-2.07-.37-2.27.39-.33,1.37.23,1.81.5l7.37,4.76A3.51,3.51,0,0,1,194.3,157.86Zm3.58-11.8a4.23,4.23,0,0,1-1.58,2.67,3,3,0,0,1-2,.35l-5.92-3.69a4.22,4.22,0,0,1-2.18-1.8,4.41,4.41,0,0,1-.51-1.86c-.26-3.2-.38-7.14-.4-7.8a6.65,6.65,0,0,1,.33-3.15,6.42,6.42,0,0,1,1.42-2.23c1.44-1.54,3.56-4,6.33-7.16a2.7,2.7,0,0,1,2.05-1c.93.11,1.61,1.1,2.2,2.5C200.83,130.32,198.68,142.74,197.88,146.06Z"/><ellipse class="d" cx="176.51" cy="131.47" rx="2.89" ry="1.96" transform="translate(22.4 288.6) rotate(-82.24)"/><ellipse class="d" cx="172.06" cy="139.65" rx="2.89" ry="1.96" transform="translate(10.46 291.27) rotate(-82.24)"/><ellipse class="d" cx="177.18" cy="144.68" rx="2.89" ry="1.96" transform="translate(9.9 300.7) rotate(-82.24)"/><ellipse class="c" cx="181.37" cy="137.56" rx="2.89" ry="1.96" transform="translate(20.58 298.69) rotate(-82.24)"/><circle class="d" cx="171.12" cy="131.98" r="0.62"/><circle class="d" cx="182.4" cy="130.03" r="0.62"/><circle class="d" cx="172.41" cy="146.94" r="0.62"/><circle class="d" cx="182.35" cy="144.92" r="0.62"/><path class="c" d="M66.65,176,84.18,99a.4.4,0,0,1,.52-.29l67.67,23-17.74,67.13"/><path class="c" d="M66.65,176,84.08,99.39a.58.58,0,0,0-.65-.71l-13,1.9L52.19,174.27"/><rect class="d" x="120.25" y="127.34" width="7.5" height="45.49" transform="translate(43.19 -27.03) rotate(15.04)"/><rect class="c" x="127.32" y="131.3" width="22.21" height="45.36" transform="translate(44.69 -30.64) rotate(15.04)"/><polygon class="c" points="86.63 192.93 46.81 185.62 50.08 174.01 89.74 179.89 86.63 192.93"/><polygon class="c" points="152.38 193.16 89.74 179.89 86.63 192.93 150.26 205.97 152.38 193.16"/><path class="c" d="M85.45,19.32c-21.54,0-39,24.28-39,54.23s17.46,54.22,39,54.22,39-24.27,39-54.22S107,19.32,85.45,19.32Zm16.16,14.45c2-1.21,4.3.4,4.4.48,2.52,1.78,1.94,5.4,1.91,5.58a6,6,0,0,1-.84,2.15c-2.54,4.09-8.47,12.18-9,13-.34.24-1.12.75-1.54.47s-.29-.9-.24-1.3c.33-2.48,3.4-16.24,3.81-18.08A3.69,3.69,0,0,1,101.61,33.77ZM65.12,37.61a8.21,8.21,0,0,1,1.7-4.1c.74-1,2.82-3.44,10.06-5.62,4.94-1.49,10.6-3.19,14.83-.85a10.44,10.44,0,0,1,3.41,3.07,7.17,7.17,0,0,1,1,2.11,7.41,7.41,0,0,1,.15,3.41A93.88,93.88,0,0,0,93.4,46.27c-.33,1.73-1.1,3.35-1.52,5.06a4.72,4.72,0,0,1-1,2.05,4.88,4.88,0,0,1-1.71,1.19,29.46,29.46,0,0,1-7.84,2.22,5.12,5.12,0,0,1-3.07-.17,4.27,4.27,0,0,1-1.7-1.54c-.74-.91-7.68-7.36-10.4-12.87A8.33,8.33,0,0,1,65.12,37.61ZM55,52c.06-1,.42-4.52,3-6.46a4,4,0,0,1,1.71-.8,4.5,4.5,0,0,1,3.09.83c2,1.23,6.19,6.45,11.06,14,.38.62,1.52,2.62.84,3.44-.46.56-1.57.37-4.29-.47-3.85-1.19-5-1.87-11.53-4.88-1.42-.66-2.86-1.32-3.57-2.85A5.52,5.52,0,0,1,55,52Zm8.12,51.64A4.87,4.87,0,0,1,59,100.89,86.84,86.84,0,0,1,52.67,84.6,36.83,36.83,0,0,1,51,74c0-2.62.07-10.6,3.72-12,.49-.19,1.22-.28,6.72,1.94,2.58,1,4.74,2,6.33,2.74a13.73,13.73,0,0,1,4.5,3.45c1.51,1.79,1.76,3,4.13,13.06a7.87,7.87,0,0,1,.22,2.53A8.36,8.36,0,0,1,75,89.82c-1.58,2.33-4.22,6.42-7.71,11.67A5.15,5.15,0,0,1,63.14,103.61Zm17.39-4.4a68.73,68.73,0,0,1-2.23,10.31c-1.45,5.3-2,6.41-3.21,6.9a4.6,4.6,0,0,1-3.7-.42A6.65,6.65,0,0,1,68,109.4a6.12,6.12,0,0,1,.47-1.66c1.73-4,4.4-7.07,7.85-10.94,2.93-3.28,3.63-4,4.16-3.81C81.26,93.34,81,95.64,80.53,99.21Zm28.29,10.46c-2.24,3.84-6.6,6.47-8.85,7.72-6.6,3.67-9.89,5.5-13.4,4.19A9.3,9.3,0,0,1,82,117.5a23,23,0,0,1,.12-2.91,25.18,25.18,0,0,1,.74-4.08,47.18,47.18,0,0,0,1-5.7c.34-2.82,1-5.61,1.35-8.42A4,4,0,0,1,86,94.51a4.09,4.09,0,0,1,1.38-1.2A25.21,25.21,0,0,1,94,90.66a4.4,4.4,0,0,1,2.7-.14,3.78,3.78,0,0,1,1.63,1.19c.73.73,7.38,5.73,10.26,10.3a7.35,7.35,0,0,1,1.31,3.93A7.14,7.14,0,0,1,108.82,109.67Zm7.66-11.8a4.69,4.69,0,0,1-5.12.95c-5.56-5.1-8-8.55-9.15-10.46s-1.25-2.77-.95-3.1c.47-.53,2,.07,2.61.36l11.18,5.23C117.68,92.71,118,96.12,116.48,97.87Zm1-13.11a4.09,4.09,0,0,1-2.66.86l-9-4a5.86,5.86,0,0,1-3.37-2.1A6.1,6.1,0,0,1,101.47,77c-1-4.42-1.88-9.88-2-10.79a9.44,9.44,0,0,1-.15-4.46,9,9,0,0,1,1.57-3.37c1.71-2.43,4.2-6.22,7.45-11.18A3.78,3.78,0,0,1,111,45.42c1.32,0,2.46,1.22,3.55,3.06,5.83,9.78,5.19,27.48,4.7,32.27A5.85,5.85,0,0,1,117.53,84.76Z"/><ellipse class="d" cx="86.67" cy="64.48" rx="2.76" ry="4.06"/><ellipse class="d" cx="82.03" cy="76.71" rx="2.76" ry="4.06"/><ellipse class="d" cx="90.12" cy="82.75" rx="2.76" ry="4.06"/><ellipse class="d" cx="94.61" cy="72.04" rx="2.76" ry="4.06"/><circle class="d" cx="79.27" cy="66.21" r="0.86"/><circle class="d" cx="94.61" cy="61.35" r="0.86"/><circle class="d" cx="83.91" cy="86.81" r="0.86"/><circle class="d" cx="97.37" cy="82.11" r="0.86"/><polygon class="c" points="32.07 212.76 76.16 225.6 84.1 192.5 40.88 183.47 32.07 212.76"/><polygon class="c" points="76.16 225.6 152.38 234.58 155.24 205.97 84.1 192.5 76.16 225.6"/><polygon class="c" points="123.15 134.84 115.51 131.3 111.65 145.43 119.67 147.99 123.15 134.84"/><path class="c" d="M91.32,138.31,78.7,135.62,77,145.25,90,148a8.37,8.37,0,0,0,1.72.06,4.9,4.9,0,0,0,4.14-5.56C95.55,140.15,93.38,138.69,91.32,138.31Z"/><circle class="c" cx="77.16" cy="140.28" r="4.9"/><path class="c" d="M84.1,149.75l2.71,7.83,13.78,2.53a.36.36,0,0,0,.38-.53l-3.67-6.9Z"/><path class="c" d="M83.45,179l14.87,2.75,3-21.32a.14.14,0,0,0-.12-.16l-14.37-2.64Z"/><polygon class="c" points="76.69 148.09 84.1 149.75 86.81 157.58 83.45 178.95 70.48 177.04 76.69 148.09"/><path class="c" d="M113.45,124.9a2,2,0,0,0-.63-.11c-1.59,0-2.88,2-2.88,4.44s1.29,4.45,2.88,4.45l2.17.39a1.32,1.32,0,0,0,1.56-1.3v-7.31Z"/><ellipse class="c" cx="116.55" cy="129.91" rx="2.88" ry="4.45"/><path class="c" d="M141,161.53a1.53,1.53,0,0,0-.59-.13c-1.53,0-2.77,2.35-2.77,5.25s1.24,5.24,2.77,5.24l2,.44a1.31,1.31,0,0,0,1.59-1.28v-8.87Z"/><ellipse class="c" cx="144.04" cy="167.43" rx="2.76" ry="5.25"/><path class="e" d="M162.22,111.81c-15.18-2.07-29.81,13.36-32.69,34.46s7.09,39.9,22.27,42,29.82-13.37,32.7-34.47S177.4,113.88,162.22,111.81Zm10,11.73c1.49-.66,3,.7,3.05.76,1.6,1.5.85,4,.81,4.12a4.32,4.32,0,0,1-.8,1.43c-2.18,2.64-7.14,7.77-7.61,8.27-.26.14-.87.42-1.14.18s-.12-.66,0-.94c.47-1.71,3.95-11.12,4.42-12.37A2.63,2.63,0,0,1,172.23,123.54Zm-26.09-.8a5.82,5.82,0,0,1,1.59-2.72c.62-.63,2.32-2.15,7.63-3,3.63-.57,7.78-1.23,10.53.83a7.43,7.43,0,0,1,2.11,2.49,5.06,5.06,0,0,1,.5,1.58,5.19,5.19,0,0,1-.22,2.42,67.33,67.33,0,0,0-3,7.22c-.4,1.19-1.1,2.26-1.56,3.42a3.3,3.3,0,0,1-.92,1.35,3.38,3.38,0,0,1-1.31.67,20.51,20.51,0,0,1-5.74.81,3.56,3.56,0,0,1-2.15-.41,3,3,0,0,1-1.05-1.25c-.43-.71-4.71-5.92-6.09-10.07A5.94,5.94,0,0,1,146.14,122.74Zm-8.49,9.15a6.29,6.29,0,0,1,2.74-4.26,3,3,0,0,1,1.29-.4,3.14,3.14,0,0,1,2.09.89c1.27,1,3.75,5.13,6.45,10.95.21.47.82,2,.26,2.51-.38.34-1.14.11-3-.75-2.6-1.21-3.38-1.8-7.66-4.54a4.56,4.56,0,0,1-2.24-2.36A3.83,3.83,0,0,1,137.65,131.89Zm.75,37.17a3.45,3.45,0,0,1-2.65-2.31,61,61,0,0,1-2.9-12.09,26.43,26.43,0,0,1-.14-7.63c.26-1.85,1.07-7.47,3.77-8.11.37-.08.89-.08,4.55,2,1.72,1,3.15,1.87,4.2,2.55a9.7,9.7,0,0,1,2.84,2.85c.9,1.41,1,2.29,1.65,9.61a5.26,5.26,0,0,1-.08,1.8,6,6,0,0,1-1.52,2.75c-1.34,1.49-3.59,4.12-6.56,7.48A3.63,3.63,0,0,1,138.4,169.06Zm7.2,10.18a3.25,3.25,0,0,1-2.57-.65,4.73,4.73,0,0,1-1.79-5,4.21,4.21,0,0,1,.5-1.13c1.6-2.67,3.78-4.56,6.58-6.95,2.38-2,2.94-2.5,3.3-2.28.54.32.13,1.91-.53,4.39a50.31,50.31,0,0,1-2.57,7.05C147,178.28,146.47,179,145.6,179.24Zm25.56-4a5.09,5.09,0,0,1-1.15,2.52c-1.94,2.5-5.26,3.93-7,4.59-5,1.95-7.51,2.93-9.85,1.67a6.62,6.62,0,0,1-2.81-3.31,17.59,17.59,0,0,1,1.28-4.84,34.53,34.53,0,0,0,1.29-3.92c.51-2,1.21-3.86,1.76-5.81a2.87,2.87,0,0,1,.68-1.25,3,3,0,0,1,1.09-.72,18.12,18.12,0,0,1,4.94-1.23,3.15,3.15,0,0,1,1.91.17,2.69,2.69,0,0,1,1,1c.44.58,4.65,4.75,6.24,8.25A5.22,5.22,0,0,1,171.16,175.2Zm5.38-5.06a3.31,3.31,0,0,1-3.69.18,34.13,34.13,0,0,1-5.45-8.25c-.64-1.5-.61-2.07-.37-2.27s1.37.23,1.81.5l7.37,4.76A3.51,3.51,0,0,1,176.54,170.14Zm3.58-11.8a4.23,4.23,0,0,1-1.58,2.67,3,3,0,0,1-2,.35l-5.92-3.69a4.22,4.22,0,0,1-2.18-1.8A4.41,4.41,0,0,1,168,154c-.26-3.2-.38-7.14-.4-7.8a6.65,6.65,0,0,1,.33-3.15,6.42,6.42,0,0,1,1.42-2.23c1.44-1.54,3.56-4,6.33-7.16a2.7,2.7,0,0,1,2-1c.93.11,1.61,1.1,2.2,2.5C183.07,142.6,180.92,155,180.12,158.34Z"/><ellipse class="f" cx="158.75" cy="143.75" rx="2.89" ry="1.96" transform="translate(-5.13 281.63) rotate(-82.24)"/><ellipse class="f" cx="154.3" cy="151.93" rx="2.89" ry="1.96" transform="translate(-17.08 284.3) rotate(-82.24)"/><ellipse class="f" cx="159.42" cy="156.96" rx="2.89" ry="1.96" transform="translate(-17.63 293.72) rotate(-82.24)"/><ellipse class="e" cx="163.61" cy="149.84" rx="2.89" ry="1.96" transform="translate(-6.95 291.72) rotate(-82.24)"/><circle class="f" cx="153.36" cy="144.26" r="0.62"/><circle class="f" cx="164.64" cy="142.31" r="0.62"/><circle class="f" cx="154.65" cy="159.22" r="0.62"/><circle class="f" cx="164.59" cy="157.2" r="0.62"/><path class="e" d="M48.89,188.31l17.53-77a.4.4,0,0,1,.52-.29l67.67,23-17.74,67.13"/><path class="e" d="M48.89,188.31l17.43-76.64a.58.58,0,0,0-.65-.71l-13,1.9L34.43,186.55"/><rect class="f" x="102.49" y="139.63" width="7.5" height="45.49" transform="translate(45.77 -22) rotate(15.04)"/><rect class="e" x="109.56" y="143.58" width="22.21" height="45.36" transform="translate(47.27 -25.61) rotate(15.04)"/><polygon class="e" points="68.87 205.21 29.05 197.9 32.31 186.3 71.98 192.17 68.87 205.21"/><polygon class="e" points="134.62 205.44 71.98 192.17 68.87 205.21 132.5 218.25 134.62 205.44"/><path class="e" d="M67.69,31.6c-21.54,0-39,24.28-39,54.23s17.46,54.22,39,54.22,39-24.27,39-54.22S89.23,31.6,67.69,31.6ZM83.85,46.05c2-1.21,4.3.4,4.4.48,2.52,1.78,1.94,5.4,1.91,5.58a6,6,0,0,1-.84,2.15c-2.54,4.09-8.47,12.18-9,13-.34.24-1.12.75-1.54.47s-.29-.9-.24-1.3c.33-2.48,3.4-16.24,3.81-18.08A3.69,3.69,0,0,1,83.85,46.05ZM47.36,49.89a8.21,8.21,0,0,1,1.7-4.1c.74-1,2.82-3.44,10.06-5.62C64.06,38.68,69.72,37,74,39.32a10.44,10.44,0,0,1,3.41,3.07,7.17,7.17,0,0,1,1,2.11,7.41,7.41,0,0,1,.15,3.41,93.88,93.88,0,0,0-2.87,10.64c-.33,1.73-1.1,3.35-1.52,5.06a4.72,4.72,0,0,1-1,2,4.88,4.88,0,0,1-1.71,1.19,29.46,29.46,0,0,1-7.84,2.22,5.12,5.12,0,0,1-3.07-.17,4.27,4.27,0,0,1-1.7-1.54C58,66.45,51.1,60,48.38,54.49A8.33,8.33,0,0,1,47.36,49.89ZM37.26,64.25c.06-1,.42-4.52,3-6.46A4,4,0,0,1,42,57a4.5,4.5,0,0,1,3.09.83c2,1.23,6.19,6.45,11.06,14,.38.62,1.52,2.62.84,3.44-.46.56-1.57.37-4.29-.47-3.85-1.19-5-1.87-11.53-4.88-1.42-.66-2.86-1.32-3.57-2.85A5.52,5.52,0,0,1,37.26,64.25Zm8.12,51.64a4.87,4.87,0,0,1-4.14-2.72,86.84,86.84,0,0,1-6.33-16.29,36.83,36.83,0,0,1-1.65-10.61c0-2.62.07-10.6,3.72-12,.49-.19,1.22-.28,6.72,1.94,2.58,1,4.74,2,6.33,2.74a13.73,13.73,0,0,1,4.5,3.45c1.51,1.79,1.76,3,4.13,13.06A7.87,7.87,0,0,1,58.88,98a8.36,8.36,0,0,1-1.6,4.12c-1.58,2.33-4.22,6.42-7.71,11.67A5.15,5.15,0,0,1,45.38,115.89Zm17.39-4.4a68.73,68.73,0,0,1-2.23,10.31c-1.45,5.3-2,6.41-3.21,6.9a4.6,4.6,0,0,1-3.7-.42,6.65,6.65,0,0,1-3.43-6.6,6.12,6.12,0,0,1,.47-1.66c1.73-4,4.4-7.07,7.85-10.94,2.93-3.28,3.63-4,4.16-3.81C63.5,105.62,63.22,107.92,62.77,111.49ZM91.06,122c-2.24,3.84-6.6,6.47-8.85,7.72-6.6,3.67-9.89,5.5-13.4,4.19a9.3,9.3,0,0,1-4.54-4.08,23,23,0,0,1,.12-2.91,25.18,25.18,0,0,1,.74-4.08,47.18,47.18,0,0,0,1.05-5.7c.34-2.82,1-5.61,1.35-8.42a4,4,0,0,1,.71-1.88,4.09,4.09,0,0,1,1.38-1.2,25.21,25.21,0,0,1,6.65-2.65,4.4,4.4,0,0,1,2.7-.14A3.78,3.78,0,0,1,80.6,104c.73.73,7.38,5.73,10.26,10.3a7.35,7.35,0,0,1,1.31,3.93A7.14,7.14,0,0,1,91.06,122Zm7.66-11.8a4.69,4.69,0,0,1-5.12.95c-5.56-5.1-8-8.55-9.15-10.46s-1.25-2.77-1-3.1c.47-.53,2,.07,2.61.36l11.18,5.23C99.92,105,100.25,108.4,98.72,110.15Zm1-13.11a4.09,4.09,0,0,1-2.66.86l-9-4a5.86,5.86,0,0,1-3.37-2.1,6.1,6.1,0,0,1-1.07-2.48c-1-4.42-1.88-9.88-2-10.79a9.44,9.44,0,0,1-.15-4.46,9,9,0,0,1,1.57-3.37c1.71-2.43,4.2-6.22,7.45-11.18A3.78,3.78,0,0,1,93.2,57.7c1.32,0,2.46,1.22,3.55,3.06,5.83,9.78,5.19,27.48,4.7,32.27A5.85,5.85,0,0,1,99.77,97Z"/><ellipse class="f" cx="68.91" cy="76.76" rx="2.76" ry="4.06"/><ellipse class="f" cx="64.27" cy="89" rx="2.76" ry="4.06"/><ellipse class="f" cx="72.36" cy="95.03" rx="2.76" ry="4.06"/><ellipse class="f" cx="76.85" cy="84.32" rx="2.76" ry="4.06"/><circle class="f" cx="61.51" cy="78.49" r="0.86"/><circle class="f" cx="76.85" cy="73.63" r="0.86"/><circle class="f" cx="66.15" cy="99.09" r="0.86"/><circle class="f" cx="79.61" cy="94.39" r="0.86"/><polygon class="e" points="14.31 225.04 58.4 237.88 66.34 204.78 23.12 195.75 14.31 225.04"/><polygon class="e" points="58.4 237.88 134.62 246.86 137.48 218.25 66.34 204.78 58.4 237.88"/><polygon class="e" points="105.39 147.12 97.75 143.59 93.89 157.71 101.91 160.27 105.39 147.12"/><path class="e" d="M73.56,150.59,60.94,147.9l-1.7,9.63,13,2.75a8.63,8.63,0,0,0,1.72.05,4.9,4.9,0,0,0,4.14-5.56C77.79,152.43,75.62,151,73.56,150.59Z"/><circle class="e" cx="59.4" cy="152.56" r="4.9"/><path class="e" d="M66.34,162l2.71,7.83,13.78,2.53a.36.36,0,0,0,.38-.52L79.54,165Z"/><path class="e" d="M65.69,191.24,80.56,194l3-21.31a.15.15,0,0,0-.12-.17l-14.37-2.64Z"/><polygon class="e" points="58.93 160.38 66.34 162.03 69.05 169.86 65.69 191.24 52.72 189.32 58.93 160.38"/><path class="e" d="M95.69,137.18a2,2,0,0,0-.63-.11c-1.59,0-2.89,2-2.89,4.45s1.3,4.44,2.89,4.44l2.17.39a1.32,1.32,0,0,0,1.56-1.3v-7.31Z"/><ellipse class="e" cx="98.79" cy="142.19" rx="2.88" ry="4.45"/><path class="e" d="M123.24,173.81a1.52,1.52,0,0,0-.59-.12c-1.53,0-2.77,2.34-2.77,5.24s1.24,5.25,2.77,5.25l2,.43a1.31,1.31,0,0,0,1.59-1.28v-8.87Z"/><ellipse class="e" cx="126.28" cy="179.71" rx="2.76" ry="5.25"/></svg>