<svg width="131" height="122" viewBox="0 0 131 122" fill="none" xmlns="http://www.w3.org/2000/svg">
<path d="M16 79C16 79.5304 15.5786 80.0391 14.8284 80.4142C14.0783 80.7893 13.0609 81 12 81C10.9391 81 9.92172 80.7893 9.17157 80.4142C8.42143 80.0391 8 79.5304 8 79C8 78.4696 8.42143 77.9609 9.17157 77.5858C9.92172 77.2107 10.9391 77 12 77C13.0609 77 14.0783 77.2107 14.8284 77.5858C15.5786 77.9609 16 78.4696 16 79Z" fill="white" stroke="black" stroke-width="1.50047" stroke-linejoin="bevel"/>
<path d="M13 78.5C13 78.6326 12.8946 78.7598 12.7071 78.8536C12.5196 78.9473 12.2652 79 12 79C11.7348 79 11.4804 78.9473 11.2929 78.8536C11.1054 78.7598 11 78.6326 11 78.5C11 78.3674 11.1054 78.2402 11.2929 78.1464C11.4804 78.0527 11.7348 78 12 78C12.2652 78 12.5196 78.0527 12.7071 78.1464C12.8946 78.2402 13 78.3674 13 78.5Z" fill="white" stroke="black" stroke-width="1.50047" stroke-linejoin="bevel"/>
<path d="M1 100.117L1.08008 106.696L21.3906 118.032L21.3086 111.25L1 100.117Z" fill="white" stroke="black" stroke-width="1.5" stroke-linecap="round" stroke-linejoin="round"/>
<path d="M21.3091 111.25L88.8209 94.0668L88.9019 100.848L21.3901 118.031L21.3091 111.25Z" fill="white" stroke="black" stroke-width="1.5" stroke-linecap="round" stroke-linejoin="round"/>
<path d="M68.5117 82.9357L1 100.117L21.3086 111.25L88.8203 94.0665L68.5117 82.9357Z" fill="white" stroke="black" stroke-width="1.5" stroke-linecap="round" stroke-linejoin="round"/>
<path d="M24.9858 48.8055H27.6043V56.0997L26.2951 59.0922L24.9858 56.0997V48.8055Z" fill="white" stroke="black" stroke-width="1.50047" stroke-linejoin="bevel"/>
<path d="M29.1007 47.4027C29.1007 47.7748 28.8051 48.1316 28.279 48.3946C27.7529 48.6577 27.0393 48.8055 26.2952 48.8055C25.5512 48.8055 24.8376 48.6577 24.3114 48.3946C23.7853 48.1316 23.4897 47.7748 23.4897 47.4027C23.4897 47.0307 23.7853 46.6739 24.3114 46.4108C24.8376 46.1478 25.5512 46 26.2952 46C27.0393 46 27.7529 46.1478 28.279 46.4108C28.8051 46.6739 29.1007 47.0307 29.1007 47.4027Z" fill="white" stroke="black" stroke-width="1.50047" stroke-linejoin="bevel"/>
<path d="M14.9858 42.8055H17.6043V50.0997L16.2951 53.0922L14.9858 50.0997V42.8055Z" fill="white" stroke="black" stroke-width="1.50047" stroke-linejoin="bevel"/>
<path d="M19.1007 41.4027C19.1007 41.7748 18.8051 42.1316 18.279 42.3946C17.7529 42.6577 17.0393 42.8055 16.2952 42.8055C15.5512 42.8055 14.8376 42.6577 14.3114 42.3946C13.7853 42.1316 13.4897 41.7748 13.4897 41.4027C13.4897 41.0307 13.7853 40.6739 14.3114 40.4108C14.8376 40.1478 15.5512 40 16.2952 40C17.0393 40 17.7529 40.1478 18.279 40.4108C18.8051 40.6739 19.1007 41.0307 19.1007 41.4027Z" fill="white" stroke="black" stroke-width="1.50047" stroke-linejoin="bevel"/>
<path d="M104.308 95.2739L114.602 101.106L103.025 104.987L93.2295 99.0334L104.308 95.2739Z" fill="white" stroke="black" stroke-width="1.50047" stroke-linejoin="round"/>
<path d="M114.602 101.106L103.025 104.986L103.039 113.142C101.266 114.807 98.9133 115.841 96.4882 116.019C94.059 116.198 91.5755 115.518 89.5761 114.127C87.9246 112.977 86.6076 111.353 85.8242 109.5L82.8417 110.863C82.8676 110.895 82.895 110.925 82.916 110.961L86.0136 116.209C86.5271 117.078 87.061 117.946 87.7656 118.67C88.4702 119.393 89.3364 119.963 90.291 120.293C91.2455 120.623 92.2718 120.714 93.2792 120.642C94.2867 120.57 95.2768 120.342 96.2577 120.101C98.652 119.556 101.23 118.8 103.049 118.101L114.579 114.221L114.602 101.106ZM82.8417 110.863C82.8276 110.846 82.8178 110.825 82.8007 110.81C82.7521 110.769 82.6885 110.742 82.6249 110.748C82.5931 110.751 82.562 110.762 82.5351 110.779C82.5082 110.796 82.4858 110.819 82.4707 110.847C82.4556 110.875 82.4463 110.907 82.4473 110.939C82.4483 110.971 82.4578 111.004 82.4746 111.031L82.8417 110.863Z" fill="white" stroke="black" stroke-width="1.50047" stroke-linejoin="round"/>
<path d="M93.2291 99.0334L93.3026 107.004C91.5287 108.673 87.6924 109.34 85.2632 109.519L85.8237 109.5C86.3184 110.67 87.026 111.748 87.896 112.674C87.9206 112.667 87.9455 112.661 87.9702 112.654L87.9858 112.763C88.2078 112.994 88.442 113.213 88.6831 113.424C88.7235 113.459 88.7633 113.495 88.8042 113.529C89.0524 113.74 89.3085 113.941 89.5756 114.127C90.5753 114.822 91.696 115.34 92.8706 115.662C93.7514 115.903 94.6627 116.034 95.5756 116.047C95.88 116.051 96.1841 116.042 96.4877 116.019C98.917 115.84 101.274 114.804 103.048 113.135L103.025 104.986L93.2291 99.0334Z" fill="white" stroke="black" stroke-width="1.50047" stroke-linejoin="round"/>
<path d="M81.7207 111.473L74.8267 107.693L74.8527 110.631L81.6967 114.587L81.7207 111.473ZM81.7207 111.473L90.6039 109.212V112.068L81.7448 114.587L81.7207 111.473ZM83.7106 105.434L90.6039 109.212L81.7207 111.473L74.8267 107.693L83.7106 105.434Z" fill="white" stroke="black" stroke-width="1.50047" stroke-linejoin="round"/>
<path d="M100.458 9.75909L106.702 7.85974V99.361L100.458 101.308V9.75909Z" fill="white" stroke="black" stroke-width="1.48037" stroke-linejoin="bevel"/>
<path d="M102.996 64.0421L91.7217 57.719L91.7957 65.6895L103.02 72.1891L102.996 64.0421Z" fill="white" stroke="black" stroke-width="1.50047" stroke-linejoin="round"/>
<path d="M80.9067 82.3022L74.0127 78.5224L74.0388 81.4602L80.8827 85.4165L80.9067 82.3022ZM80.9067 82.3022L89.7899 80.0411V82.8971L80.9308 85.4165L80.9067 82.3022ZM82.8966 76.263L89.7899 80.0411L80.9067 82.3022L74.0127 78.5224L82.8966 76.263Z" fill="white" stroke="black" stroke-width="1.50047" stroke-linejoin="round"/>
<path d="M112.015 60.8461L112.007 65.8071C112.535 66.1107 113.117 66.5723 113.933 67.2914C115.69 68.8416 118.487 71.488 120.745 71.6938C123.003 71.8996 124.726 69.6663 124.062 68.5903C123.397 67.5143 120.347 67.5961 117.378 65.7993C115.408 64.6069 113.515 62.6075 112.015 60.8461H112.015Z" fill="white" stroke="black" stroke-width="1.5"/>
<path d="M109.854 52.1501L106.59 53.0309C106.59 53.1876 106.59 53.031 106.59 53.2184C106.586 55.4048 106.577 59.776 107.59 60.7536C107.919 61.0707 108.446 60.9119 109.053 60.5778C109.179 62.0311 109.427 63.329 109.924 63.8083C110.937 64.7859 113.746 61.4504 115.432 61.3141C117.118 61.1779 119.229 62.3999 121.951 62.5661C124.673 62.7324 128.008 61.8435 129.397 60.1774C130.785 58.5114 129.772 56.4139 129.772 56.4139C129.772 56.4139 125.496 54.2336 124.361 53.9495C122.805 53.5599 122.858 54.528 119.401 54.6059C116.412 54.6732 112.2 52.9435 109.854 52.1501Z" fill="white" stroke="black" stroke-width="1.5"/>
<path d="M103.844 50.0411L90.9886 55.2103C79.4835 59.8367 79.4997 69.0929 80.0171 78.3089C80.6971 78.448 81.581 79.3713 81.581 79.3713C81.581 79.3713 83.0537 71.4513 84.5233 67.879C85.5744 72.4674 91.9034 61.6024 91.8807 65.6876L101.064 61.9513L101.996 57.9571L112.361 55.1583L103.844 50.0411Z" fill="white" stroke="black" stroke-width="1.50047" stroke-linejoin="round"/>
<path d="M112.187 55.2047L108.924 56.0856C108.924 56.2423 108.924 56.0857 108.924 56.2731C108.924 56.2781 108.924 56.2872 108.924 56.2926L99.625 58.8043C96.1577 59.8656 88.7528 62.1577 84.9746 66.8942C81.6882 70.607 82.2984 75.6737 81.4023 79.6266L83.5059 79.0797C83.1345 77.0515 85.6037 71.6054 88.3555 69.1618C92.2211 65.7289 100.578 63.7824 102.996 64.0426L102.975 72.2653L112.158 68.5289L112.168 63.15C113.278 62.3924 114.517 61.388 115.432 61.3141C117.118 61.1779 119.229 62.3998 121.951 62.566C124.674 62.7323 128.008 61.8434 129.397 60.1774C130.785 58.5113 130.23 56.067 128.674 55.6774C127.118 55.2878 124.563 56.953 121.106 57.0309C118.116 57.0982 114.534 55.9981 112.188 55.2047L112.187 55.2047Z" fill="white" stroke="black" stroke-width="1.50047" stroke-linejoin="round"/>
<path d="M100.457 2.89935L106.702 1L106.434 53.1113L100.19 55.0581L100.457 2.89935Z" fill="white" stroke="black" stroke-width="1.48037" stroke-linejoin="bevel"/>
<path d="M11.9201 100.673C13.8035 100.673 15.3304 97.6194 15.3304 93.8525C15.3304 90.0856 13.8035 87.0319 11.9201 87.0319C10.0366 87.0319 8.50977 90.0856 8.50977 93.8525C8.50977 97.6194 10.0366 100.673 11.9201 100.673Z" fill="white" stroke="black" stroke-width="1.32163" stroke-linecap="round" stroke-linejoin="round"/>
<path d="M32.1509 81.9351C31.884 81.9433 31.6185 82.0141 31.3599 82.146L11.9204 87.0328C12.8248 87.0328 13.6922 87.7514 14.3317 89.0305C14.9712 90.3095 15.3305 92.0442 15.3306 93.8531C15.3303 95.37 15.0773 96.8434 14.6114 98.0404C14.1456 99.2374 13.4935 100.09 12.7583 100.462L32.1978 95.5757C33.1022 95.5756 33.9695 94.857 34.609 93.578C35.2486 92.299 35.6079 90.5642 35.6079 88.7554C35.6079 86.9466 35.2486 85.2119 34.6091 83.9328C33.9695 82.6538 33.1022 81.9352 32.1978 81.9351C32.1821 81.9349 32.1665 81.9349 32.1509 81.9351L32.1509 81.9351Z" fill="white" stroke="black" stroke-width="1.32163" stroke-linecap="round" stroke-linejoin="round"/>
<path d="M11.1445 92.828L4.60547 94.4921C3.95066 94.4921 3.41992 95.253 3.41992 95.871C3.41992 96.489 3.78076 97.4081 4.43555 97.4081C4.56968 97.4081 4.70915 97.3591 4.84765 97.289L11.1758 95.4628C11.3096 95.4629 11.4422 95.4301 11.5659 95.3662C11.6895 95.3024 11.8019 95.2087 11.8966 95.0906C11.9913 94.9726 12.0664 94.8324 12.1176 94.6781C12.1689 94.5237 12.1953 94.3583 12.1953 94.1913C12.1953 94.0243 12.1689 93.8588 12.1176 93.7045C12.0664 93.5502 11.9913 93.41 11.8966 93.292C11.8019 93.1739 11.6895 93.0802 11.5658 93.0164C11.4422 92.9525 11.3096 92.9197 11.1758 92.9198C11.1659 92.9203 11.1561 92.9209 11.1463 92.9218L11.1445 92.828Z" fill="white" stroke="black" stroke-width="1.50047" stroke-linejoin="bevel"/>
<path d="M27 83C27 83.5304 26.5786 84.0391 25.8284 84.4142C25.0783 84.7893 24.0609 85 23 85C21.9391 85 20.9217 84.7893 20.1716 84.4142C19.4214 84.0391 19 83.5304 19 83C19 82.4696 19.4214 81.9609 20.1716 81.5858C20.9217 81.2107 21.9391 81 23 81C24.0609 81 25.0783 81.2107 25.8284 81.5858C26.5786 81.9609 27 82.4696 27 83Z" fill="white" stroke="black" stroke-width="1.50047" stroke-linejoin="bevel"/>
<path d="M24 82.5C24 82.6326 23.8946 82.7598 23.7071 82.8536C23.5196 82.9473 23.2652 83 23 83C22.7348 83 22.4804 82.9473 22.2929 82.8536C22.1054 82.7598 22 82.6326 22 82.5C22 82.3674 22.1054 82.2402 22.2929 82.1464C22.4804 82.0527 22.7348 82 23 82C23.2652 82 23.5196 82.0527 23.7071 82.1464C23.8946 82.2402 24 82.3674 24 82.5Z" fill="white" stroke="black" stroke-width="1.50047" stroke-linejoin="bevel"/>
<path d="M21.8926 59.7574C21.6257 59.7655 21.3602 59.8363 21.1016 59.9683L14.4141 61.6499C13.5096 61.65 12.6423 62.3686 12.0028 63.6477C11.3632 64.9267 11.0039 66.6614 11.0039 68.4702H17.8262L17.7735 74.4449L24.7227 77.937L32.6875 75.9351L25.3867 72.7437L25.3497 66.5777C25.3497 64.7688 24.9903 63.0341 24.3508 61.7551C23.7113 60.476 22.844 59.7574 21.9395 59.7574C21.9239 59.7571 21.9083 59.7571 21.8927 59.7574H21.8926Z" fill="white" stroke="black" stroke-width="1.32163" stroke-linecap="round" stroke-linejoin="round"/>
<path d="M10.9961 69.3882L4 70.9507L10.9512 74.4429L10.9961 69.3882Z" fill="white" stroke="black" stroke-width="1.5" stroke-linejoin="round"/>
<path d="M14.3691 61.6499C13.4725 61.6736 12.6167 62.4027 11.9868 63.6791C11.357 64.9556 11.0039 66.6769 11.0039 68.4703L10.9512 74.4429L17.7871 72.9156L17.8262 68.4703C17.8261 66.6614 17.4669 64.9267 16.8273 63.6477C16.1878 62.3686 15.3205 61.65 14.416 61.6499C14.4004 61.6497 14.3848 61.6497 14.3692 61.6499H14.3691Z" fill="white" stroke="black" stroke-width="1.5" stroke-linejoin="round"/>
<path d="M24.947 75.2574C25.2923 75.2574 25.5722 75.1871 25.5722 75.1003C25.5722 75.0135 25.2923 74.9431 24.947 74.9431C24.6017 74.9431 24.3218 75.0135 24.3218 75.1003C24.3218 75.1871 24.6017 75.2574 24.947 75.2574Z" fill="white" stroke="black" stroke-width="1.50047" stroke-linejoin="bevel"/>
</svg>
