<svg width="110" height="98" viewBox="0 0 110 98" fill="none" xmlns="http://www.w3.org/2000/svg">
<path d="M56.7921 22.8024C56.6824 22.7912 56.5767 22.802 56.4776 22.8344C56.3289 22.8834 56.1976 22.9804 56.0915 23.1199C55.9854 23.2594 55.9065 23.4385 55.8594 23.6469L36.5424 49.0059C36.395 49.0541 36.2648 49.1496 36.159 49.2869C36.0533 49.4241 35.9742 49.6004 35.9263 49.8057C35.8783 50.011 35.8624 50.2412 35.8795 50.4833C35.8966 50.7254 35.9463 50.9746 36.0259 51.2167C36.1056 51.4588 36.2136 51.6889 36.3436 51.894C36.4737 52.099 36.6233 52.275 36.7839 52.4118C36.9444 52.5486 37.1129 52.6435 37.2795 52.6911C37.4461 52.7388 37.6077 52.7382 37.755 52.6895C37.9029 52.6404 38.0335 52.5436 38.1392 52.4048C38.2449 52.266 38.3236 52.0878 38.3708 51.8806L57.69 26.52C57.9872 26.4218 58.2083 26.1338 58.3048 25.7192C58.4013 25.3046 58.3652 24.7974 58.2045 24.309C58.0715 23.9044 57.8611 23.5377 57.6059 23.2654C57.3506 22.9932 57.0646 22.8305 56.7921 22.8024L56.7921 22.8024Z" fill="white" stroke="black" stroke-width="1.5" stroke-linecap="round" stroke-linejoin="round"/>
<path d="M57.6895 26.5201C57.5423 26.5686 57.3807 26.5689 57.2142 26.5211C57.0476 26.4733 56.8793 26.3783 56.7188 26.2415C56.5584 26.1046 56.4089 25.9287 56.2789 25.7237C56.149 25.5187 56.0411 25.2886 55.9615 25.0467C55.8006 24.558 55.7645 24.0504 55.8611 23.6356C55.9577 23.2208 56.1791 22.9328 56.4766 22.8349C56.774 22.737 57.1232 22.8372 57.4473 23.1135C57.7714 23.3898 58.0438 23.8196 58.2046 24.3083C58.2843 24.5503 58.3341 24.7994 58.3514 25.0416C58.3686 25.2837 58.3528 25.514 58.305 25.7194C58.2572 25.9248 58.1782 26.1012 58.0726 26.2386C57.967 26.376 57.8368 26.4716 57.6895 26.5201Z" fill="white" stroke="black" stroke-width="1.5" stroke-linecap="round" stroke-linejoin="round"/>
<path d="M90.8887 11.1943L94.9133 10.3503L98.7645 28.6039L95.0338 31.5055L90.8887 11.1943Z" fill="white" stroke="black" stroke-width="1.5" stroke-linecap="round" stroke-linejoin="round"/>
<path d="M49.0229 43.1119L90.8889 11.1943L95.034 31.5055L51.9246 54.7183L49.0229 43.1119Z" fill="white" stroke="black" stroke-width="1.5" stroke-linecap="round" stroke-linejoin="round"/>
<path d="M28.521 54.2154C27.3373 54.2154 26.2008 54.4948 25.1343 54.9947L21.0327 56.0904C18.1863 56.1602 15.473 57.8231 13.4772 60.7208C11.4815 63.6185 10.363 67.5192 10.3628 71.5826C10.3627 75.6921 11.5064 79.6334 13.5422 82.5394C15.5779 85.4455 18.3391 87.0783 21.2183 87.0787C22.0883 87.0784 22.9552 86.9289 23.8003 86.6334L29.1011 85.1666C34.8259 84.7342 39.3784 77.9904 39.3784 69.7115C39.3784 61.1534 34.5169 54.2154 28.521 54.2154Z" fill="white" stroke="black" stroke-width="1.37487" stroke-linecap="round" stroke-linejoin="round"/>
<path d="M32.0754 71.5821C32.0754 73.617 31.7946 75.632 31.249 77.512C30.7034 79.3921 29.9037 81.1003 28.8956 82.5393C27.8875 83.9782 26.6907 85.1196 25.3735 85.8983C24.0563 86.6771 22.6446 87.0779 21.2189 87.0779C18.3395 87.0779 15.5781 85.4453 13.5421 82.5393C11.5061 79.6332 10.3623 75.6918 10.3623 71.5821C10.3623 67.4723 11.5061 63.5309 13.5421 60.6248C15.5781 57.7188 18.3395 56.0862 21.2189 56.0862C22.6446 56.0862 24.0563 56.487 25.3735 57.2658C26.6907 58.0445 27.8875 59.1859 28.8956 60.6248C29.9037 62.0638 30.7034 63.772 31.249 65.652C31.7946 67.5321 32.0754 69.5471 32.0754 71.5821Z" fill="white" stroke="black" stroke-width="1.37487" stroke-linecap="round" stroke-linejoin="round"/>
<path d="M20.385 75.842C21.5706 75.842 22.5317 74.1205 22.5317 71.9971C22.5317 69.8736 21.5706 68.1522 20.385 68.1522C19.1994 68.1522 18.2383 69.8736 18.2383 71.9971C18.2383 74.1205 19.1994 75.842 20.385 75.842Z" fill="white" stroke="black" stroke-width="1.5" stroke-linecap="round" stroke-linejoin="round"/>
<path d="M44.0913 34.7984L47.4678 31.9178L46.8851 28.1769L50.5581 27.1558C50.5581 27.1558 56.0757 31.8896 57.967 34.9284C60.0386 38.2567 62.022 45.9683 62.022 45.9683L58.5902 46.1806L58.691 48.5773L56.0747 48.7395L53.7915 51.2593C53.7915 51.2593 52.7475 45.07 51.2253 42.3981C49.5054 39.3791 44.0913 34.7983 44.0913 34.7983L44.0913 34.7984Z" fill="white" fill-opacity="0.5" stroke="black" stroke-width="1.5" stroke-linecap="round" stroke-linejoin="round"/>
<path d="M35.6214 72.304C36.3667 72.304 36.9709 71.4355 36.9709 70.3641C36.9709 69.2928 36.3667 68.4243 35.6214 68.4243C34.8762 68.4243 34.272 69.2928 34.272 70.3641C34.272 71.4355 34.8762 72.304 35.6214 72.304Z" fill="white" stroke="black" stroke-width="1.5" stroke-linecap="round" stroke-linejoin="round"/>
<path d="M33.3055 63.5235C33.7565 64.4952 34.6017 65.0605 35.1932 64.7859C35.7847 64.5114 35.8986 63.501 35.4476 62.5292C34.9965 61.5574 34.1513 60.9922 33.5598 61.2668C32.9683 61.5413 32.8544 62.5517 33.3055 63.5235Z" fill="white" stroke="black" stroke-width="1.5" stroke-linecap="round" stroke-linejoin="round"/>
<path d="M33.5051 77.1076C34.0443 76.1818 34.9382 75.6974 35.5017 76.0256C36.0652 76.3538 36.0849 77.3704 35.5457 78.2962C35.0065 79.2219 34.1125 79.7063 33.549 79.3781C32.9855 79.0499 32.9658 78.0333 33.5051 77.1076Z" fill="white" stroke="black" stroke-width="1.5" stroke-linecap="round" stroke-linejoin="round"/>
<path d="M29.8145 58.2813C30.8196 58.6522 31.8174 58.4568 32.0431 57.845C32.2689 57.2332 31.6371 56.4366 30.6319 56.0657C29.6268 55.6949 28.629 55.8902 28.4033 56.502C28.1775 57.1138 28.8094 57.9104 29.8145 58.2813Z" fill="white" stroke="black" stroke-width="1.5" stroke-linecap="round" stroke-linejoin="round"/>
</svg>
